%TF.GenerationSoftware,KiCad,Pcbnew,9.0.6*%
%TF.CreationDate,2026-01-25T02:33:32+09:00*%
%TF.ProjectId,KiCad_uPD75CG08E,4b694361-645f-4755-9044-373543473038,rev?*%
%TF.SameCoordinates,Original*%
%TF.FileFunction,Legend,Bot*%
%TF.FilePolarity,Positive*%
%FSLAX46Y46*%
G04 Gerber Fmt 4.6, Leading zero omitted, Abs format (unit mm)*
G04 Created by KiCad (PCBNEW 9.0.6) date 2026-01-25 02:33:32*
%MOMM*%
%LPD*%
G01*
G04 APERTURE LIST*
G04 Aperture macros list*
%AMRoundRect*
0 Rectangle with rounded corners*
0 $1 Rounding radius*
0 $2 $3 $4 $5 $6 $7 $8 $9 X,Y pos of 4 corners*
0 Add a 4 corners polygon primitive as box body*
4,1,4,$2,$3,$4,$5,$6,$7,$8,$9,$2,$3,0*
0 Add four circle primitives for the rounded corners*
1,1,$1+$1,$2,$3*
1,1,$1+$1,$4,$5*
1,1,$1+$1,$6,$7*
1,1,$1+$1,$8,$9*
0 Add four rect primitives between the rounded corners*
20,1,$1+$1,$2,$3,$4,$5,0*
20,1,$1+$1,$4,$5,$6,$7,0*
20,1,$1+$1,$6,$7,$8,$9,0*
20,1,$1+$1,$8,$9,$2,$3,0*%
G04 Aperture macros list end*
%ADD10C,0.150000*%
%ADD11C,0.120000*%
%ADD12C,1.700000*%
%ADD13R,1.700000X1.700000*%
%ADD14C,1.600000*%
%ADD15C,1.440000*%
%ADD16RoundRect,0.250000X-0.950000X-0.550000X0.950000X-0.550000X0.950000X0.550000X-0.950000X0.550000X0*%
%ADD17O,2.400000X1.600000*%
%ADD18RoundRect,0.250000X0.550000X-0.950000X0.550000X0.950000X-0.550000X0.950000X-0.550000X-0.950000X0*%
%ADD19O,1.600000X2.400000*%
%ADD20RoundRect,0.250000X0.950000X0.550000X-0.950000X0.550000X-0.950000X-0.550000X0.950000X-0.550000X0*%
%ADD21R,1.500000X1.050000*%
%ADD22O,1.500000X1.050000*%
%ADD23C,6.400000*%
%ADD24RoundRect,0.250000X0.550000X-0.550000X0.550000X0.550000X-0.550000X0.550000X-0.550000X-0.550000X0*%
%ADD25RoundRect,0.250000X-0.550000X0.550000X-0.550000X-0.550000X0.550000X-0.550000X0.550000X0.550000X0*%
%ADD26RoundRect,0.250000X0.550000X0.550000X-0.550000X0.550000X-0.550000X-0.550000X0.550000X-0.550000X0*%
%ADD27RoundRect,0.875000X0.875000X0.875000X-0.875000X0.875000X-0.875000X-0.875000X0.875000X-0.875000X0*%
%ADD28RoundRect,0.750000X0.750000X1.000000X-0.750000X1.000000X-0.750000X-1.000000X0.750000X-1.000000X0*%
%ADD29R,3.500000X3.500000*%
%ADD30R,1.600000X1.600000*%
%ADD31C,2.000000*%
%ADD32R,1.905000X2.000000*%
%ADD33O,1.905000X2.000000*%
%ADD34RoundRect,0.250000X-0.550000X0.950000X-0.550000X-0.950000X0.550000X-0.950000X0.550000X0.950000X0*%
G04 APERTURE END LIST*
D10*
X50578819Y-89458642D02*
X50102628Y-89125309D01*
X50578819Y-88887214D02*
X49578819Y-88887214D01*
X49578819Y-88887214D02*
X49578819Y-89268166D01*
X49578819Y-89268166D02*
X49626438Y-89363404D01*
X49626438Y-89363404D02*
X49674057Y-89411023D01*
X49674057Y-89411023D02*
X49769295Y-89458642D01*
X49769295Y-89458642D02*
X49912152Y-89458642D01*
X49912152Y-89458642D02*
X50007390Y-89411023D01*
X50007390Y-89411023D02*
X50055009Y-89363404D01*
X50055009Y-89363404D02*
X50102628Y-89268166D01*
X50102628Y-89268166D02*
X50102628Y-88887214D01*
X50578819Y-90411023D02*
X50578819Y-89839595D01*
X50578819Y-90125309D02*
X49578819Y-90125309D01*
X49578819Y-90125309D02*
X49721676Y-90030071D01*
X49721676Y-90030071D02*
X49816914Y-89934833D01*
X49816914Y-89934833D02*
X49864533Y-89839595D01*
X49578819Y-90744357D02*
X49578819Y-91411023D01*
X49578819Y-91411023D02*
X50578819Y-90982452D01*
X60837580Y-89645642D02*
X60885200Y-89598023D01*
X60885200Y-89598023D02*
X60932819Y-89455166D01*
X60932819Y-89455166D02*
X60932819Y-89359928D01*
X60932819Y-89359928D02*
X60885200Y-89217071D01*
X60885200Y-89217071D02*
X60789961Y-89121833D01*
X60789961Y-89121833D02*
X60694723Y-89074214D01*
X60694723Y-89074214D02*
X60504247Y-89026595D01*
X60504247Y-89026595D02*
X60361390Y-89026595D01*
X60361390Y-89026595D02*
X60170914Y-89074214D01*
X60170914Y-89074214D02*
X60075676Y-89121833D01*
X60075676Y-89121833D02*
X59980438Y-89217071D01*
X59980438Y-89217071D02*
X59932819Y-89359928D01*
X59932819Y-89359928D02*
X59932819Y-89455166D01*
X59932819Y-89455166D02*
X59980438Y-89598023D01*
X59980438Y-89598023D02*
X60028057Y-89645642D01*
X60932819Y-90598023D02*
X60932819Y-90026595D01*
X60932819Y-90312309D02*
X59932819Y-90312309D01*
X59932819Y-90312309D02*
X60075676Y-90217071D01*
X60075676Y-90217071D02*
X60170914Y-90121833D01*
X60170914Y-90121833D02*
X60218533Y-90026595D01*
X60932819Y-91550404D02*
X60932819Y-90978976D01*
X60932819Y-91264690D02*
X59932819Y-91264690D01*
X59932819Y-91264690D02*
X60075676Y-91169452D01*
X60075676Y-91169452D02*
X60170914Y-91074214D01*
X60170914Y-91074214D02*
X60218533Y-90978976D01*
D11*
%TO.C,R17*%
X53635000Y-93371500D02*
X53635000Y-86831500D01*
X53305000Y-93371500D02*
X53635000Y-93371500D01*
X51225000Y-93371500D02*
X50895000Y-93371500D01*
X50895000Y-93371500D02*
X50895000Y-86831500D01*
X53635000Y-86831500D02*
X53305000Y-86831500D01*
X50895000Y-86831500D02*
X51225000Y-86831500D01*
%TO.C,C11*%
X54108000Y-86418500D02*
X54108000Y-94158500D01*
X55494000Y-86418500D02*
X54108000Y-86418500D01*
X59348000Y-86418500D02*
X57962000Y-86418500D01*
X54108000Y-94158500D02*
X55494000Y-94158500D01*
X57962000Y-94158500D02*
X59348000Y-94158500D01*
X59348000Y-94158500D02*
X59348000Y-86418500D01*
%TD*%
%LPC*%
D12*
%TO.C,J4*%
X61046000Y-102230000D03*
X61046000Y-104770000D03*
X58506000Y-102230000D03*
X58506000Y-104770000D03*
X55966000Y-102230000D03*
X55966000Y-104770000D03*
X53426000Y-102230000D03*
D13*
X53426000Y-104770000D03*
%TD*%
D14*
%TO.C,C10*%
X47203000Y-132525000D03*
X47203000Y-127525000D03*
%TD*%
D13*
%TO.C,J2*%
X95082000Y-126850000D03*
D12*
X97622000Y-126850000D03*
%TD*%
D14*
%TO.C,C8*%
X68820000Y-121026000D03*
X73820000Y-121026000D03*
%TD*%
%TO.C,C7*%
X71955000Y-117851000D03*
X76955000Y-117851000D03*
%TD*%
%TO.C,C9*%
X61554000Y-109596000D03*
X61554000Y-114596000D03*
%TD*%
D15*
%TO.C,RV1*%
X87365000Y-127376000D03*
X87365000Y-124836000D03*
X87365000Y-122296000D03*
%TD*%
D16*
%TO.C,U6*%
X50759000Y-115946000D03*
D17*
X50759000Y-118486000D03*
X50759000Y-121026000D03*
X50759000Y-123566000D03*
X50759000Y-126106000D03*
X50759000Y-128646000D03*
X50759000Y-131186000D03*
X50759000Y-133726000D03*
X58379000Y-133726000D03*
X58379000Y-131186000D03*
X58379000Y-128646000D03*
X58379000Y-126106000D03*
X58379000Y-123566000D03*
X58379000Y-121026000D03*
X58379000Y-118486000D03*
X58379000Y-115946000D03*
%TD*%
D15*
%TO.C,RV2*%
X67777000Y-116708000D03*
X67777000Y-114168000D03*
X67777000Y-111628000D03*
%TD*%
D18*
%TO.C,U3*%
X90370000Y-113533000D03*
D19*
X92910000Y-113533000D03*
X95450000Y-113533000D03*
X97990000Y-113533000D03*
X97990000Y-105913000D03*
X95450000Y-105913000D03*
X92910000Y-105913000D03*
X90370000Y-105913000D03*
%TD*%
D17*
%TO.C,U4*%
X72590000Y-114676000D03*
X72590000Y-112136000D03*
X72590000Y-109596000D03*
X72590000Y-107056000D03*
X80210000Y-107056000D03*
X80210000Y-109596000D03*
X80210000Y-112136000D03*
D20*
X80210000Y-114676000D03*
%TD*%
D21*
%TO.C,U5*%
X62824000Y-119756000D03*
D22*
X62824000Y-118486000D03*
X62824000Y-117216000D03*
%TD*%
D23*
%TO.C,H4*%
X95170000Y-144990000D03*
%TD*%
%TO.C,H2*%
X29170000Y-55990000D03*
%TD*%
%TO.C,H1*%
X95170000Y-55990000D03*
%TD*%
%TO.C,H3*%
X29170000Y-144990000D03*
%TD*%
D14*
%TO.C,C2*%
X67142000Y-143338000D03*
X67142000Y-138338000D03*
%TD*%
%TO.C,C5*%
X73238000Y-136451395D03*
D24*
X73238000Y-138951395D03*
%TD*%
D14*
%TO.C,C3*%
X76794000Y-142402000D03*
X76794000Y-147402000D03*
%TD*%
%TO.C,C4*%
X62062000Y-143338000D03*
X62062000Y-138338000D03*
%TD*%
%TO.C,C12*%
X35060000Y-138490000D03*
X40060000Y-138490000D03*
%TD*%
%TO.C,C13*%
X46568000Y-87140500D03*
X46568000Y-82140500D03*
%TD*%
%TO.C,D4*%
X76400000Y-128646000D03*
D25*
X76400000Y-121026000D03*
%TD*%
D14*
%TO.C,D5*%
X42250000Y-138490000D03*
D26*
X49870000Y-138490000D03*
%TD*%
D12*
%TO.C,J7*%
X72585000Y-102357000D03*
X70045000Y-102357000D03*
X67505000Y-102357000D03*
D13*
X64965000Y-102357000D03*
%TD*%
D27*
%TO.C,J1*%
X92450000Y-130790000D03*
D28*
X95450000Y-135490000D03*
D29*
X89450000Y-135490000D03*
%TD*%
D12*
%TO.C,J5*%
X92905000Y-102357000D03*
X90365000Y-102357000D03*
X87825000Y-102357000D03*
D13*
X85285000Y-102357000D03*
%TD*%
D12*
%TO.C,J6*%
X82745000Y-102357000D03*
X80205000Y-102357000D03*
X77665000Y-102357000D03*
D13*
X75125000Y-102357000D03*
%TD*%
D14*
%TO.C,D3*%
X79575000Y-121026000D03*
D24*
X79575000Y-128646000D03*
%TD*%
D14*
%TO.C,F1*%
X81152000Y-141092000D03*
X86152000Y-141092000D03*
%TD*%
D13*
%TO.C,J3*%
X57998000Y-112136000D03*
D12*
X55458000Y-112136000D03*
X52918000Y-112136000D03*
%TD*%
D30*
%TO.C,RN1*%
X33360000Y-121315000D03*
D14*
X35900000Y-121315000D03*
X38440000Y-121315000D03*
X40980000Y-121315000D03*
X43520000Y-121315000D03*
%TD*%
D24*
%TO.C,SW4*%
X34884000Y-132110000D03*
D14*
X37424000Y-132110000D03*
X39964000Y-132110000D03*
X42504000Y-132110000D03*
X42504000Y-124490000D03*
X39964000Y-124490000D03*
X37424000Y-124490000D03*
X34884000Y-124490000D03*
%TD*%
D31*
%TO.C,SW2*%
X49235000Y-141600000D03*
X49235000Y-148100000D03*
X44735000Y-141600000D03*
X44735000Y-148100000D03*
%TD*%
%TO.C,SW3*%
X40345000Y-141490000D03*
X40345000Y-147990000D03*
X35845000Y-141490000D03*
X35845000Y-147990000D03*
%TD*%
D32*
%TO.C,U1*%
X67142000Y-146045000D03*
D33*
X64602000Y-146045000D03*
X62062000Y-146045000D03*
%TD*%
D18*
%TO.C,U9*%
X75524000Y-77274500D03*
D19*
X78064000Y-77274500D03*
X80604000Y-77274500D03*
X83144000Y-77274500D03*
X83144000Y-62034500D03*
X80604000Y-62034500D03*
X78064000Y-62034500D03*
X75524000Y-62034500D03*
%TD*%
D34*
%TO.C,U7*%
X97985000Y-82481500D03*
D19*
X95445000Y-82481500D03*
X92905000Y-82481500D03*
X90365000Y-82481500D03*
X87825000Y-82481500D03*
X85285000Y-82481500D03*
X82745000Y-82481500D03*
X80205000Y-82481500D03*
X77665000Y-82481500D03*
X75125000Y-82481500D03*
X72585000Y-82481500D03*
X70045000Y-82481500D03*
X67505000Y-82481500D03*
X64965000Y-82481500D03*
X62425000Y-82481500D03*
X59885000Y-82481500D03*
X57345000Y-82481500D03*
X54805000Y-82481500D03*
X52265000Y-82481500D03*
X49725000Y-82481500D03*
X49725000Y-97721500D03*
X52265000Y-97721500D03*
X54805000Y-97721500D03*
X57345000Y-97721500D03*
X59885000Y-97721500D03*
X62425000Y-97721500D03*
X64965000Y-97721500D03*
X67505000Y-97721500D03*
X70045000Y-97721500D03*
X72585000Y-97721500D03*
X75125000Y-97721500D03*
X77665000Y-97721500D03*
X80205000Y-97721500D03*
X82745000Y-97721500D03*
X85285000Y-97721500D03*
X87825000Y-97721500D03*
X90365000Y-97721500D03*
X92905000Y-97721500D03*
X95445000Y-97721500D03*
X97985000Y-97721500D03*
%TD*%
D18*
%TO.C,U8*%
X64094000Y-77274500D03*
D19*
X66634000Y-77274500D03*
X69174000Y-77274500D03*
X71714000Y-77274500D03*
X71714000Y-62034500D03*
X69174000Y-62034500D03*
X66634000Y-62034500D03*
X64094000Y-62034500D03*
%TD*%
%TO.C,U10*%
X86954000Y-62034500D03*
X89494000Y-62034500D03*
X92034000Y-62034500D03*
X94574000Y-62034500D03*
X94574000Y-77274500D03*
X92034000Y-77274500D03*
X89494000Y-77274500D03*
D18*
X86954000Y-77274500D03*
%TD*%
D14*
%TO.C,R3*%
X91653000Y-116218000D03*
X91653000Y-123838000D03*
%TD*%
%TO.C,R5*%
X84020000Y-106548000D03*
X84020000Y-114168000D03*
%TD*%
%TO.C,R2*%
X97990000Y-116200000D03*
X97990000Y-123820000D03*
%TD*%
%TO.C,R4*%
X82920000Y-128646000D03*
X82920000Y-121026000D03*
%TD*%
%TO.C,R10*%
X73225000Y-123947000D03*
X73225000Y-131567000D03*
%TD*%
%TO.C,R15*%
X47600000Y-135250000D03*
X39980000Y-135250000D03*
%TD*%
%TO.C,R8*%
X87195000Y-117851000D03*
X79575000Y-117851000D03*
%TD*%
%TO.C,R7*%
X87195000Y-106548000D03*
X87195000Y-114168000D03*
%TD*%
%TO.C,R9*%
X66634000Y-131694000D03*
X66634000Y-124074000D03*
%TD*%
%TO.C,R12*%
X42123000Y-111374000D03*
X49743000Y-111374000D03*
%TD*%
%TO.C,R11*%
X70050000Y-123947000D03*
X70050000Y-131567000D03*
%TD*%
%TO.C,R6*%
X94815000Y-116200000D03*
X94815000Y-123820000D03*
%TD*%
%TO.C,R13*%
X47203000Y-125217000D03*
X47203000Y-117597000D03*
%TD*%
%TO.C,R14*%
X49743000Y-108199000D03*
X42123000Y-108199000D03*
%TD*%
%TO.C,R16*%
X29804000Y-135250000D03*
X37424000Y-135250000D03*
%TD*%
%TO.C,C1*%
X82763000Y-132998651D03*
D24*
X82763000Y-136798651D03*
%TD*%
D14*
%TO.C,C6*%
X55966000Y-139499395D03*
D24*
X55966000Y-141999395D03*
%TD*%
D14*
%TO.C,R17*%
X52265000Y-93911500D03*
X52265000Y-86291500D03*
%TD*%
D31*
%TO.C,C11*%
X56728000Y-86538500D03*
X56728000Y-94038500D03*
%TD*%
%LPD*%
M02*
