M48
; DRILL file {KiCad 9.0.6} date 2026-01-25T02:33:32+0900
; FORMAT={-:-/ absolute / inch / decimal}
; #@! TF.CreationDate,2026-01-25T02:33:32+09:00
; #@! TF.GenerationSoftware,Kicad,Pcbnew,9.0.6
; #@! TF.FileFunction,Plated,1,2,PTH
FMAT,2
INCH
; #@! TA.AperFunction,Plated,PTH,ViaDrill
T1C0.0160
; #@! TA.AperFunction,Plated,PTH,ComponentDrill
T2C0.0295
; #@! TA.AperFunction,Plated,PTH,ComponentDrill
T3C0.0315
; #@! TA.AperFunction,Plated,PTH,ViaDrill
T4C0.0320
; #@! TA.AperFunction,Plated,PTH,ComponentDrill
T5C0.0394
; #@! TA.AperFunction,Plated,PTH,ComponentDrill
T6C0.0433
; #@! TA.AperFunction,Plated,PTH,ComponentDrill
T7C0.1260
%
G90
G05
T1
X0.9834Y-5.2648
X1.0134Y-2.3248
X1.0134Y-2.7248
X1.0134Y-3.1748
X1.0134Y-3.7248
X1.0134Y-4.1748
X1.0134Y-4.5748
X1.0134Y-5.3248
X1.0134Y-5.5748
X1.0634Y-5.2648
X1.1434Y-5.2648
X1.2234Y-5.2648
X1.2634Y-4.9248
X1.3134Y-2.0748
X1.3134Y-5.8248
X1.3634Y-5.1248
X1.4134Y-4.1748
X1.4134Y-4.5248
X1.4634Y-3.6748
X1.4834Y-4.9748
X1.4884Y-5.5998
X1.4992Y-5.835
X1.5334Y-4.0848
X1.5634Y-4.3748
X1.5634Y-4.5248
X1.5884Y-5.1248
X1.6034Y-3.6723
X1.6234Y-5.2648
X1.6634Y-3.4423
X1.6634Y-5.5748
X1.6634Y-5.8248
X1.7134Y-5.0148
X1.7134Y-5.1248
X1.724Y-5.3248
X1.8134Y-2.0748
X1.8434Y-5.5948
X1.8496Y-4.7622
X1.8634Y-4.8498
X1.8634Y-5.8248
X1.9434Y-4.1648
X1.9634Y-3.3923
X1.9634Y-5.3748
X2.0134Y-5.6748
X2.0234Y-4.3148
X2.0334Y-3.9948
X2.0634Y-3.0423
X2.1134Y-3.3423
X2.1134Y-5.0748
X2.1134Y-5.6748
X2.1434Y-4.2948
X2.1634Y-3.1423
X2.1834Y-4.5148
X2.2134Y-4.9248
X2.2134Y-5.6748
X2.2634Y-5.8248
X2.3134Y-3.3923
X2.3634Y-3.7023
X2.3634Y-5.6748
X2.3884Y-4.7998
X2.4134Y-2.0748
X2.4134Y-2.6923
X2.4634Y-2.8423
X2.4634Y-3.3923
X2.4734Y-2.5323
X2.4934Y-4.5548
X2.5034Y-4.8148
X2.5134Y-3.1423
X2.5334Y-5.0648
X2.5434Y-5.6448
X2.5434Y-5.8548
X2.5534Y-5.1848
X2.5734Y-2.5323
X2.5934Y-2.3023
X2.6034Y-4.5548
X2.6134Y-2.6423
X2.6134Y-2.8423
X2.6134Y-4.6648
X2.6134Y-4.7748
X2.6134Y-4.9548
X2.6634Y-5.3248
X2.6834Y-2.5223
X2.7934Y-5.5748
X2.8134Y-3.7123
X2.8134Y-4.7748
X2.8134Y-5.0748
X2.8134Y-5.7148
X2.8134Y-5.8548
X2.8634Y-2.0748
X2.8634Y-2.2923
X2.8634Y-2.8423
X2.9134Y-2.6423
X2.9134Y-3.1623
X2.9334Y-5.7148
X2.9434Y-5.5848
X2.9634Y-3.7423
X3.0134Y-2.5223
X3.0134Y-4.1248
X3.0134Y-5.2748
X3.0634Y-5.4248
X3.1134Y-5.5748
X3.1334Y-2.5223
X3.2134Y-2.6423
X3.2134Y-3.1623
X3.2134Y-4.6248
X3.2234Y-5.7148
X3.2234Y-5.8048
X3.2634Y-2.0748
X3.2634Y-2.2923
X3.2634Y-5.5748
X3.2734Y-4.3248
X3.3334Y-2.5223
X3.3634Y-2.6423
X3.3634Y-3.3423
X3.3634Y-3.7423
X3.3634Y-4.9448
X3.3634Y-5.4748
X3.4034Y-5.0848
X3.4134Y-2.8423
X3.4134Y-4.7548
X3.4134Y-5.2248
X3.4534Y-2.5223
X3.4834Y-4.1148
X3.4834Y-5.5748
X3.5034Y-3.1423
X3.5055Y-4.2558
X3.5134Y-4.9748
X3.5434Y-4.8148
X3.5634Y-5.4748
X3.5634Y-5.7048
X3.5634Y-5.8648
X3.6134Y-2.0748
X3.6134Y-2.2923
X3.6134Y-2.7923
X3.6734Y-4.6348
X3.7134Y-2.8923
X3.7134Y-3.1348
X3.7334Y-2.5723
X3.8134Y-3.1023
X3.8634Y-2.4423
X3.8634Y-2.8423
X3.8634Y-2.9523
X3.8634Y-3.4423
X3.8634Y-4.2748
X3.8634Y-5.0748
X3.8634Y-5.5748
X3.8834Y-3.3723
X3.8934Y-4.6348
T2
X2.4734Y-4.6148
X2.4734Y-4.6648
X2.4734Y-4.7148
T3
X1.1734Y-5.3248
X1.3134Y-4.7762
X1.3734Y-4.9012
X1.3734Y-5.2012
X1.3803Y-5.4524
X1.4134Y-4.7762
X1.4734Y-4.9012
X1.4734Y-5.2012
X1.4734Y-5.3248
X1.5134Y-4.7762
X1.5734Y-4.9012
X1.5734Y-5.2012
X1.574Y-5.3248
X1.5772Y-5.4524
X1.6134Y-4.7762
X1.6584Y-4.2598
X1.6584Y-4.3848
X1.6634Y-5.4524
X1.6734Y-4.9012
X1.6734Y-5.2012
X1.7134Y-4.7762
X1.8334Y-3.2339
X1.8334Y-3.4307
X1.8584Y-4.6298
X1.8584Y-4.9298
X1.8584Y-5.0207
X1.8584Y-5.2175
X1.874Y-5.3248
X1.9577Y-3.2473
X1.9577Y-3.8473
X1.9584Y-4.2598
X1.9584Y-4.3848
X1.9634Y-5.4524
X1.9984Y-4.5648
X1.9984Y-4.6648
X1.9984Y-4.7648
X1.9984Y-4.8648
X1.9984Y-4.9648
X1.9984Y-5.0648
X1.9984Y-5.1648
X1.9984Y-5.2648
X2.0577Y-3.2473
X2.0577Y-3.3973
X2.0577Y-3.6973
X2.0577Y-3.8473
X2.1577Y-3.2473
X2.1577Y-3.8473
X2.2034Y-5.4921
X2.2034Y-5.5905
X2.2577Y-3.2473
X2.2577Y-3.8473
X2.2984Y-4.5648
X2.2984Y-4.6648
X2.2984Y-4.7648
X2.2984Y-4.8648
X2.2984Y-4.9648
X2.2984Y-5.0648
X2.2984Y-5.1648
X2.2984Y-5.2648
X2.3577Y-3.2473
X2.3577Y-3.8473
X2.4234Y-4.3148
X2.4234Y-4.5117
X2.4434Y-5.4464
X2.4434Y-5.6432
X2.4577Y-3.2473
X2.4577Y-3.8473
X2.5234Y-2.4423
X2.5234Y-3.0423
X2.5577Y-3.2473
X2.5577Y-3.8473
X2.6234Y-2.4423
X2.6234Y-3.0423
X2.6234Y-4.8848
X2.6234Y-5.1848
X2.6434Y-5.4464
X2.6434Y-5.6432
X2.6577Y-3.2473
X2.6577Y-3.8473
X2.6684Y-4.3948
X2.6684Y-4.4948
X2.6684Y-4.5948
X2.7094Y-4.7648
X2.7234Y-2.4423
X2.7234Y-3.0423
X2.7577Y-3.2473
X2.7577Y-3.8473
X2.7579Y-4.8798
X2.7579Y-5.1798
X2.8234Y-2.4423
X2.8234Y-3.0423
X2.8329Y-4.6398
X2.8577Y-3.2473
X2.8577Y-3.8473
X2.8579Y-4.2148
X2.8579Y-4.3148
X2.8579Y-4.4148
X2.8579Y-4.5148
X2.8829Y-4.8798
X2.8829Y-5.1798
X2.8834Y-5.3721
X2.8834Y-5.4705
X2.9063Y-4.7648
X2.9577Y-3.2473
X2.9577Y-3.8473
X2.9734Y-2.4423
X2.9734Y-3.0423
X3.0079Y-4.7648
X3.0079Y-5.0648
X3.0234Y-5.6064
X3.0234Y-5.8032
X3.0297Y-4.6398
X3.0577Y-3.2473
X3.0577Y-3.8473
X3.0734Y-2.4423
X3.0734Y-3.0423
X3.1329Y-4.6398
X3.1329Y-4.7648
X3.1329Y-5.0648
X3.1577Y-3.2473
X3.1577Y-3.8473
X3.1579Y-4.2148
X3.1579Y-4.3148
X3.1579Y-4.4148
X3.1579Y-4.5148
X3.1734Y-2.4423
X3.1734Y-3.0423
X3.195Y-5.5548
X3.2577Y-3.2473
X3.2577Y-3.8473
X3.2584Y-5.2362
X3.2584Y-5.3858
X3.2646Y-4.7648
X3.2646Y-5.0648
X3.2734Y-2.4423
X3.2734Y-3.0423
X3.3079Y-4.1948
X3.3079Y-4.4948
X3.3577Y-3.2473
X3.3577Y-3.8473
X3.3918Y-5.5548
X3.4234Y-2.4423
X3.4234Y-3.0423
X3.4329Y-4.1948
X3.4329Y-4.4948
X3.4329Y-4.6398
X3.4396Y-4.8148
X3.4396Y-4.9148
X3.4396Y-5.0148
X3.4577Y-3.2473
X3.4577Y-3.8473
X3.5234Y-2.4423
X3.5234Y-3.0423
X3.5577Y-3.2473
X3.5577Y-3.8473
X3.5579Y-4.1698
X3.5579Y-4.4698
X3.6084Y-4.5755
X3.6084Y-4.8755
X3.6234Y-2.4423
X3.6234Y-3.0423
X3.6577Y-3.2473
X3.6577Y-3.8473
X3.6579Y-4.1698
X3.6579Y-4.4698
X3.7234Y-2.4423
X3.7234Y-3.0423
X3.7329Y-4.5748
X3.7329Y-4.8748
X3.7577Y-3.2473
X3.7577Y-3.8473
X3.7579Y-4.1698
X3.7579Y-4.4698
X3.8577Y-3.2473
X3.8577Y-3.8473
X3.8579Y-4.1698
X3.8579Y-4.4698
X3.8579Y-4.5748
X3.8579Y-4.8748
T4
X2.8734Y-5.7948
T5
X2.0834Y-4.4148
X2.1034Y-4.0248
X2.1034Y-4.1248
X2.1834Y-4.4148
X2.2034Y-4.0248
X2.2034Y-4.1248
X2.2334Y-3.407
X2.2334Y-3.7023
X2.2834Y-4.4148
X2.3034Y-4.0248
X2.3034Y-4.1248
X2.4034Y-4.0248
X2.4034Y-4.1248
X2.5577Y-4.0298
X2.6577Y-4.0298
X2.7577Y-4.0298
X2.8577Y-4.0298
X2.9577Y-4.0298
X3.0577Y-4.0298
X3.1577Y-4.0298
X3.2577Y-4.0298
X3.3577Y-4.0298
X3.4577Y-4.0298
X3.5577Y-4.0298
X3.6577Y-4.0298
X3.7434Y-4.9941
X3.8434Y-4.9941
T6
X1.4112Y-5.5705
X1.4112Y-5.8264
X1.5884Y-5.5705
X1.5884Y-5.8264
X1.7612Y-5.5748
X1.7612Y-5.8307
X1.9384Y-5.5748
X1.9384Y-5.8307
X2.4434Y-5.7498
X2.5434Y-5.7498
X2.6434Y-5.7498
T7
X1.1484Y-2.2043
X1.1484Y-5.7083
X3.7469Y-2.2043
X3.7469Y-5.7083
T5
G00X3.5217Y-5.3736
M15
G01X3.5217Y-5.2949
M16
G05
G00X3.6791Y-5.1492
M15
G01X3.6004Y-5.1492
M16
G05
G00X3.7579Y-5.3736
M15
G01X3.7579Y-5.2949
M16
G05
M30
